M48
; DRILL file {KiCad 9.0.7} date 2026-04-09T09:00:28-0500
; FORMAT={-:-/ absolute / metric / decimal}
; #@! TF.CreationDate,2026-04-09T09:00:28-05:00
; #@! TF.GenerationSoftware,Kicad,Pcbnew,9.0.7
; #@! TF.FileFunction,Plated,1,2,PTH
FMAT,2
METRIC
; #@! TA.AperFunction,Plated,PTH,ViaDrill
T1C0.300
; #@! TA.AperFunction,Plated,PTH,ComponentDrill
T2C0.700
; #@! TA.AperFunction,Plated,PTH,ComponentDrill
T3C0.710
; #@! TA.AperFunction,Plated,PTH,ComponentDrill
T4C0.750
; #@! TA.AperFunction,Plated,PTH,ComponentDrill
T5C0.800
; #@! TA.AperFunction,Plated,PTH,ComponentDrill
T6C0.950
; #@! TA.AperFunction,Plated,PTH,ComponentDrill
T7C1.000
; #@! TA.AperFunction,Plated,PTH,ComponentDrill
T8C1.100
; #@! TA.AperFunction,Plated,PTH,ComponentDrill
T9C1.200
%
G90
G05
T1
X69.81Y-69.76
X69.84Y-46.91
X73.08Y-56.75
X73.77Y-70.06
X76.99Y-42.29
X78.13Y-75.63
X78.83Y-56.75
X80.05Y-66.26
X84.1Y-75.64
X93.07Y-69.21
X94.76Y-56.75
X94.83Y-66.29
X97.79Y-66.27
X98.62Y-69.76
X104.28Y-76.05
X104.29Y-69.15
X106.705Y-74.88
X109.455Y-55.58
X109.5Y-76.99
X115.7Y-69.41
X116.39Y-72.36
X116.54Y-65.91
X116.64Y-67.86
X116.694Y-66.776
X116.71Y-68.98
X117.12Y-63.36
X118.19Y-79.86
X120.05Y-66.705
X121.27Y-77.13
X122.045Y-74.665
X122.06Y-66.055
X122.742Y-65.378
X124.21Y-74.38
X124.22Y-81.81
X124.23Y-77.17
X125.89Y-63.3
X126.71Y-70.98
X135.17Y-77.49
X137.3Y-83.37
X137.58Y-41.47
X141.52Y-77.49
X145.73Y-77.5
X149.131Y-51.249
X153.64Y-58.5
X155.57Y-76.2
X161.14Y-66.84
X163.51Y-46.17
T2
X108.05Y-72.37
X108.05Y-79.99
X137.18Y-70.8
X137.21Y-65.85
X137.21Y-68.26
X137.81Y-81.1
X137.99Y-46.617
X137.99Y-54.237
X144.8Y-70.8
X144.83Y-65.85
X144.83Y-68.26
X145.43Y-81.1
X152.137Y-61.42
X159.757Y-61.42
T3
X109.64Y-47.46
X112.18Y-47.46
X114.72Y-47.46
T4
X111.37Y-40.83
X111.37Y-42.1
X111.37Y-43.37
T5
X79.79Y-79.58
X84.79Y-79.58
X92.855Y-38.71
X95.55Y-79.58
X97.855Y-38.71
X100.14Y-38.7
X100.55Y-79.58
X105.14Y-38.7
X108.0Y-64.892
X108.0Y-69.892
X108.02Y-57.247
X108.02Y-62.247
X110.46Y-48.58
X113.0Y-46.04
X115.54Y-48.58
X133.12Y-54.43
X133.12Y-56.97
X133.12Y-59.51
X133.12Y-62.05
X133.12Y-64.59
X133.12Y-67.13
X133.12Y-69.67
X133.12Y-72.21
X133.12Y-74.75
X133.12Y-77.29
X133.12Y-79.83
X133.12Y-82.37
X137.915Y-59.75
X137.915Y-62.93
X142.915Y-59.75
X142.915Y-62.93
X148.36Y-54.43
X148.36Y-56.97
X148.36Y-59.51
X148.36Y-62.05
X148.36Y-64.59
X148.36Y-67.13
X148.36Y-69.67
X148.36Y-72.21
X148.36Y-74.75
X148.36Y-77.29
X148.36Y-79.83
X148.36Y-82.37
T6
X71.86Y-64.03
X74.36Y-64.03
X76.86Y-64.03
X78.9Y-73.455
X79.36Y-64.03
X81.4Y-73.455
X83.9Y-73.455
X88.74Y-43.99
X88.74Y-54.95
X88.74Y-64.03
X91.24Y-43.99
X91.24Y-54.95
X91.24Y-64.03
X93.41Y-73.425
X93.74Y-43.99
X93.74Y-54.95
X93.74Y-64.03
X95.91Y-73.425
X96.24Y-43.99
X96.24Y-54.95
X96.24Y-64.03
X98.41Y-73.425
X98.74Y-43.99
X98.74Y-54.95
X98.74Y-64.03
X101.24Y-43.99
X101.24Y-54.95
X101.24Y-64.03
X155.102Y-47.16
X155.102Y-49.66
X155.102Y-52.16
X155.102Y-54.66
X155.102Y-57.16
T7
X111.557Y-54.41
X111.557Y-56.95
X111.557Y-59.49
X111.557Y-62.03
X111.557Y-64.57
X111.557Y-67.11
X111.557Y-69.65
X111.557Y-72.19
X111.557Y-74.73
X111.557Y-77.27
X111.557Y-79.81
X111.557Y-82.35
X114.097Y-54.41
X114.097Y-56.95
X114.097Y-59.49
X114.097Y-62.03
X114.097Y-64.57
X114.097Y-67.11
X114.097Y-69.65
X114.097Y-72.19
X114.097Y-74.73
X114.097Y-77.27
X114.097Y-79.81
X114.097Y-82.35
X116.03Y-39.17
X118.57Y-39.17
X122.49Y-48.369
X124.6Y-43.399
X124.6Y-48.399
X126.83Y-43.389
X129.337Y-54.41
X129.337Y-56.95
X129.337Y-59.49
X129.337Y-62.03
X129.337Y-64.57
X129.337Y-67.11
X129.337Y-69.65
X129.337Y-72.19
X129.337Y-74.73
X129.337Y-77.27
X129.337Y-79.81
X129.337Y-82.35
X155.308Y-66.11
X155.308Y-68.65
X155.308Y-71.19
X155.308Y-73.73
X157.847Y-66.11
X157.847Y-68.65
X157.847Y-71.19
X157.847Y-73.73
T8
X133.4Y-39.23
X143.56Y-39.23
T9
X153.26Y-77.18
X153.26Y-83.58
M30
