%TF.GenerationSoftware,KiCad,Pcbnew,9.0.7*%
%TF.CreationDate,2026-04-09T10:09:23-05:00*%
%TF.ProjectId,SimInvent FFB Yoke Main Board V4,53696d49-6e76-4656-9e74-204646422059,rev?*%
%TF.SameCoordinates,Original*%
%TF.FileFunction,Paste,Top*%
%TF.FilePolarity,Positive*%
%FSLAX46Y46*%
G04 Gerber Fmt 4.6, Leading zero omitted, Abs format (unit mm)*
G04 Created by KiCad (PCBNEW 9.0.7) date 2026-04-09 10:09:23*
%MOMM*%
%LPD*%
G01*
G04 APERTURE LIST*
G04 Aperture macros list*
%AMRoundRect*
0 Rectangle with rounded corners*
0 $1 Rounding radius*
0 $2 $3 $4 $5 $6 $7 $8 $9 X,Y pos of 4 corners*
0 Add a 4 corners polygon primitive as box body*
4,1,4,$2,$3,$4,$5,$6,$7,$8,$9,$2,$3,0*
0 Add four circle primitives for the rounded corners*
1,1,$1+$1,$2,$3*
1,1,$1+$1,$4,$5*
1,1,$1+$1,$6,$7*
1,1,$1+$1,$8,$9*
0 Add four rect primitives between the rounded corners*
20,1,$1+$1,$2,$3,$4,$5,0*
20,1,$1+$1,$4,$5,$6,$7,0*
20,1,$1+$1,$6,$7,$8,$9,0*
20,1,$1+$1,$8,$9,$2,$3,0*%
G04 Aperture macros list end*
%ADD10RoundRect,0.090000X0.139000X0.090000X-0.139000X0.090000X-0.139000X-0.090000X0.139000X-0.090000X0*%
%ADD11RoundRect,0.237500X0.250000X0.237500X-0.250000X0.237500X-0.250000X-0.237500X0.250000X-0.237500X0*%
%ADD12RoundRect,0.250000X-1.000000X-0.650000X1.000000X-0.650000X1.000000X0.650000X-1.000000X0.650000X0*%
%ADD13RoundRect,0.225000X0.225000X0.250000X-0.225000X0.250000X-0.225000X-0.250000X0.225000X-0.250000X0*%
%ADD14R,1.000000X0.200000*%
%ADD15R,1.500000X1.500000*%
%ADD16RoundRect,0.150000X-0.587500X-0.150000X0.587500X-0.150000X0.587500X0.150000X-0.587500X0.150000X0*%
%ADD17RoundRect,0.225000X-0.225000X-0.250000X0.225000X-0.250000X0.225000X0.250000X-0.225000X0.250000X0*%
%ADD18RoundRect,0.100000X-0.637500X-0.100000X0.637500X-0.100000X0.637500X0.100000X-0.637500X0.100000X0*%
%ADD19RoundRect,0.090000X0.090000X-0.139000X0.090000X0.139000X-0.090000X0.139000X-0.090000X-0.139000X0*%
%ADD20RoundRect,0.237500X0.237500X-0.250000X0.237500X0.250000X-0.237500X0.250000X-0.237500X-0.250000X0*%
%ADD21RoundRect,0.225000X-0.250000X0.225000X-0.250000X-0.225000X0.250000X-0.225000X0.250000X0.225000X0*%
%ADD22R,0.800000X1.000000*%
%ADD23RoundRect,0.237500X-0.250000X-0.237500X0.250000X-0.237500X0.250000X0.237500X-0.250000X0.237500X0*%
%ADD24RoundRect,0.225000X0.250000X-0.225000X0.250000X0.225000X-0.250000X0.225000X-0.250000X-0.225000X0*%
G04 APERTURE END LIST*
D10*
%TO.C,R1*%
X141542500Y-65850000D03*
D11*
X141952500Y-65862500D03*
X140127500Y-65862500D03*
%TD*%
%TO.C,R6*%
X156880000Y-61432500D03*
X155055000Y-61432500D03*
%TD*%
D12*
%TO.C,D2*%
X133595000Y-43630000D03*
X137595000Y-43630000D03*
%TD*%
D13*
%TO.C,C11*%
X96060000Y-38730000D03*
X94510000Y-38730000D03*
%TD*%
%TO.C,C7*%
X82995000Y-79600000D03*
X81445000Y-79600000D03*
%TD*%
D14*
%TO.C,SW1*%
X152420000Y-84250000D03*
D15*
X151410000Y-84230000D03*
D14*
X152300000Y-76610000D03*
D15*
X151410000Y-76530000D03*
%TD*%
D16*
%TO.C,Q2*%
X107335000Y-41100000D03*
X107335000Y-43000000D03*
X109210000Y-42050000D03*
%TD*%
D17*
%TO.C,C12*%
X101935000Y-38680000D03*
X103485000Y-38680000D03*
%TD*%
D18*
%TO.C,U1*%
X118207500Y-64755000D03*
X118207500Y-65405000D03*
X118207500Y-66055000D03*
X118207500Y-66705000D03*
X118207500Y-67355000D03*
X118207500Y-68005000D03*
X118207500Y-68655000D03*
X118207500Y-69305000D03*
X118207500Y-69955000D03*
X118207500Y-70605000D03*
X118207500Y-71255000D03*
X118207500Y-71905000D03*
X123932500Y-71905000D03*
X123932500Y-71255000D03*
X123932500Y-70605000D03*
X123932500Y-69955000D03*
X123932500Y-69305000D03*
X123932500Y-68655000D03*
X123932500Y-68005000D03*
X123932500Y-67355000D03*
X123932500Y-66705000D03*
X123932500Y-66055000D03*
X123932500Y-65405000D03*
X123932500Y-64755000D03*
%TD*%
D17*
%TO.C,C1*%
X139710000Y-62910000D03*
X141260000Y-62910000D03*
%TD*%
D19*
%TO.C,R4*%
X137990000Y-50950000D03*
D20*
X137977500Y-51360000D03*
X137977500Y-49535000D03*
%TD*%
D21*
%TO.C,C6*%
X108020000Y-66687500D03*
X108020000Y-68237500D03*
%TD*%
D22*
%TO.C,BUZZER1*%
X125600000Y-43399216D03*
X123490000Y-48369216D03*
%TD*%
D19*
%TO.C,R3*%
X108050000Y-76702500D03*
D20*
X108037500Y-77112500D03*
X108037500Y-75287500D03*
%TD*%
D10*
%TO.C,R7*%
X142142500Y-81100000D03*
D11*
X142552500Y-81112500D03*
X140727500Y-81112500D03*
%TD*%
D23*
%TO.C,R5*%
X140057500Y-70787500D03*
X141882500Y-70787500D03*
%TD*%
D17*
%TO.C,C2*%
X139710000Y-59730000D03*
X141260000Y-59730000D03*
%TD*%
D10*
%TO.C,R2*%
X141542500Y-68260000D03*
D11*
X141952500Y-68272500D03*
X140127500Y-68272500D03*
%TD*%
D24*
%TO.C,C5*%
X108000000Y-60452500D03*
X108000000Y-58902500D03*
%TD*%
D13*
%TO.C,C8*%
X98755000Y-79600000D03*
X97205000Y-79600000D03*
%TD*%
M02*
