%TF.GenerationSoftware,KiCad,Pcbnew,9.0.7*%
%TF.CreationDate,2026-04-09T10:09:23-05:00*%
%TF.ProjectId,SimInvent FFB Yoke Main Board V4,53696d49-6e76-4656-9e74-204646422059,rev?*%
%TF.SameCoordinates,Original*%
%TF.FileFunction,Soldermask,Top*%
%TF.FilePolarity,Negative*%
%FSLAX46Y46*%
G04 Gerber Fmt 4.6, Leading zero omitted, Abs format (unit mm)*
G04 Created by KiCad (PCBNEW 9.0.7) date 2026-04-09 10:09:23*
%MOMM*%
%LPD*%
G01*
G04 APERTURE LIST*
G04 Aperture macros list*
%AMRoundRect*
0 Rectangle with rounded corners*
0 $1 Rounding radius*
0 $2 $3 $4 $5 $6 $7 $8 $9 X,Y pos of 4 corners*
0 Add a 4 corners polygon primitive as box body*
4,1,4,$2,$3,$4,$5,$6,$7,$8,$9,$2,$3,0*
0 Add four circle primitives for the rounded corners*
1,1,$1+$1,$2,$3*
1,1,$1+$1,$4,$5*
1,1,$1+$1,$6,$7*
1,1,$1+$1,$8,$9*
0 Add four rect primitives between the rounded corners*
20,1,$1+$1,$2,$3,$4,$5,0*
20,1,$1+$1,$4,$5,$6,$7,0*
20,1,$1+$1,$6,$7,$8,$9,0*
20,1,$1+$1,$8,$9,$2,$3,0*%
G04 Aperture macros list end*
%ADD10C,4.300000*%
%ADD11C,1.400000*%
%ADD12RoundRect,0.237500X0.250000X0.237500X-0.250000X0.237500X-0.250000X-0.237500X0.250000X-0.237500X0*%
%ADD13RoundRect,0.250000X-0.600000X-0.725000X0.600000X-0.725000X0.600000X0.725000X-0.600000X0.725000X0*%
%ADD14O,1.700000X1.950000*%
%ADD15R,1.500000X1.050000*%
%ADD16O,1.500000X1.050000*%
%ADD17RoundRect,0.250000X-1.000000X-0.650000X1.000000X-0.650000X1.000000X0.650000X-1.000000X0.650000X0*%
%ADD18R,1.700000X1.700000*%
%ADD19C,1.700000*%
%ADD20C,2.000000*%
%ADD21C,1.600000*%
%ADD22RoundRect,0.225000X0.225000X0.250000X-0.225000X0.250000X-0.225000X-0.250000X0.225000X-0.250000X0*%
%ADD23R,1.000000X0.200000*%
%ADD24R,1.500000X1.500000*%
%ADD25C,1.800000*%
%ADD26C,1.440000*%
%ADD27R,1.600000X1.600000*%
%ADD28O,1.600000X1.600000*%
%ADD29RoundRect,0.150000X-0.587500X-0.150000X0.587500X-0.150000X0.587500X0.150000X-0.587500X0.150000X0*%
%ADD30C,1.150000*%
%ADD31RoundRect,0.225000X-0.225000X-0.250000X0.225000X-0.250000X0.225000X0.250000X-0.225000X0.250000X0*%
%ADD32RoundRect,0.100000X-0.637500X-0.100000X0.637500X-0.100000X0.637500X0.100000X-0.637500X0.100000X0*%
%ADD33RoundRect,0.237500X0.237500X-0.250000X0.237500X0.250000X-0.237500X0.250000X-0.237500X-0.250000X0*%
%ADD34RoundRect,0.225000X-0.250000X0.225000X-0.250000X-0.225000X0.250000X-0.225000X0.250000X0.225000X0*%
%ADD35R,2.000000X2.000000*%
%ADD36R,0.800000X1.000000*%
%ADD37RoundRect,0.237500X-0.250000X-0.237500X0.250000X-0.237500X0.250000X0.237500X-0.250000X0.237500X0*%
%ADD38RoundRect,0.249999X-0.850001X-0.850001X0.850001X-0.850001X0.850001X0.850001X-0.850001X0.850001X0*%
%ADD39C,2.200000*%
%ADD40RoundRect,0.225000X0.250000X-0.225000X0.250000X0.225000X-0.250000X0.225000X-0.250000X-0.225000X0*%
%ADD41RoundRect,0.250000X-0.725000X0.600000X-0.725000X-0.600000X0.725000X-0.600000X0.725000X0.600000X0*%
%ADD42O,1.950000X1.700000*%
G04 APERTURE END LIST*
D10*
%TO.C,H2*%
X69830000Y-81980000D03*
%TD*%
D11*
%TO.C,R1*%
X144830000Y-65850000D03*
D12*
X141952500Y-65862500D03*
X140127500Y-65862500D03*
D11*
X137210000Y-65850000D03*
%TD*%
D13*
%TO.C,J5*%
X78900000Y-73455000D03*
D14*
X81400000Y-73455000D03*
X83900000Y-73455000D03*
%TD*%
D11*
%TO.C,R6*%
X159757500Y-61420000D03*
D12*
X156880000Y-61432500D03*
X155055000Y-61432500D03*
D11*
X152137500Y-61420000D03*
%TD*%
D15*
%TO.C,Q1*%
X111370000Y-40830000D03*
D16*
X111370000Y-42100000D03*
X111370000Y-43370000D03*
%TD*%
D17*
%TO.C,D2*%
X133595000Y-43630000D03*
X137595000Y-43630000D03*
%TD*%
D13*
%TO.C,J1*%
X88740000Y-43990000D03*
D14*
X91240000Y-43990000D03*
X93740000Y-43990000D03*
X96240000Y-43990000D03*
X98740000Y-43990000D03*
X101240000Y-43990000D03*
%TD*%
D18*
%TO.C,J9*%
X155307500Y-66110000D03*
D19*
X157847500Y-66110000D03*
X155307500Y-68650000D03*
X157847500Y-68650000D03*
X155307500Y-71190000D03*
X157847500Y-71190000D03*
X155307500Y-73730000D03*
X157847500Y-73730000D03*
%TD*%
D20*
%TO.C,U2*%
X121617024Y-55680000D03*
X121717024Y-81080000D03*
D21*
X114097024Y-54410000D03*
X114097024Y-56950000D03*
X114097024Y-59490000D03*
X114097024Y-62030000D03*
X114097024Y-64570000D03*
X114097024Y-67110000D03*
X114097024Y-69650000D03*
X114097024Y-72190000D03*
X114097024Y-74730000D03*
X114097024Y-77270000D03*
X114097024Y-79810000D03*
X114097024Y-82350000D03*
X129337024Y-82350000D03*
X129337024Y-79810000D03*
X129337024Y-77270000D03*
X129337024Y-74730000D03*
X129337024Y-72190000D03*
X129337024Y-69650000D03*
X129337024Y-67110000D03*
X129337024Y-64570000D03*
X129337024Y-62030000D03*
X129337024Y-59490000D03*
X129337024Y-56950000D03*
X129337024Y-54410000D03*
%TD*%
D13*
%TO.C,J3*%
X88740000Y-64030000D03*
D14*
X91240000Y-64030000D03*
X93740000Y-64030000D03*
X96240000Y-64030000D03*
X98740000Y-64030000D03*
X101240000Y-64030000D03*
%TD*%
D10*
%TO.C,H3*%
X161830000Y-81980000D03*
%TD*%
D21*
%TO.C,C11*%
X97855000Y-38710000D03*
D22*
X96060000Y-38730000D03*
X94510000Y-38730000D03*
D21*
X92855000Y-38710000D03*
%TD*%
%TO.C,C7*%
X84790000Y-79580000D03*
D22*
X82995000Y-79600000D03*
X81445000Y-79600000D03*
D21*
X79790000Y-79580000D03*
%TD*%
D23*
%TO.C,SW1*%
X152420000Y-84250000D03*
D24*
X151410000Y-84230000D03*
D25*
X153260000Y-83580000D03*
X153260000Y-77180000D03*
D23*
X152300000Y-76610000D03*
D24*
X151410000Y-76530000D03*
%TD*%
D26*
%TO.C,RV1*%
X115540000Y-48580000D03*
X113000000Y-46040000D03*
X110460000Y-48580000D03*
%TD*%
D27*
%TO.C,ARDUINO_PRO_MICRO1*%
X133120000Y-54430000D03*
D28*
X133120000Y-56970000D03*
X133120000Y-59510000D03*
X133120000Y-62050000D03*
X133120000Y-64590000D03*
X133120000Y-67130000D03*
X133120000Y-69670000D03*
X133120000Y-72210000D03*
X133120000Y-74750000D03*
X133120000Y-77290000D03*
X133120000Y-79830000D03*
X133120000Y-82370000D03*
X148360000Y-82370000D03*
X148360000Y-79830000D03*
X148360000Y-77290000D03*
X148360000Y-74750000D03*
X148360000Y-72210000D03*
X148360000Y-69670000D03*
X148360000Y-67130000D03*
X148360000Y-64590000D03*
X148360000Y-62050000D03*
X148360000Y-59510000D03*
X148360000Y-56970000D03*
X148360000Y-54430000D03*
%TD*%
D18*
%TO.C,J7*%
X116030000Y-39170000D03*
D19*
X118570000Y-39170000D03*
%TD*%
D10*
%TO.C,H1*%
X69830000Y-39980000D03*
%TD*%
D29*
%TO.C,Q2*%
X107335000Y-41100000D03*
X107335000Y-43000000D03*
X109210000Y-42050000D03*
%TD*%
D30*
%TO.C,RV2*%
X114720000Y-47460000D03*
X112180000Y-47460000D03*
X109640000Y-47460000D03*
%TD*%
D21*
%TO.C,C12*%
X100140000Y-38700000D03*
D31*
X101935000Y-38680000D03*
X103485000Y-38680000D03*
D21*
X105140000Y-38700000D03*
%TD*%
D32*
%TO.C,U1*%
X118207500Y-64755000D03*
X118207500Y-65405000D03*
X118207500Y-66055000D03*
X118207500Y-66705000D03*
X118207500Y-67355000D03*
X118207500Y-68005000D03*
X118207500Y-68655000D03*
X118207500Y-69305000D03*
X118207500Y-69955000D03*
X118207500Y-70605000D03*
X118207500Y-71255000D03*
X118207500Y-71905000D03*
X123932500Y-71905000D03*
X123932500Y-71255000D03*
X123932500Y-70605000D03*
X123932500Y-69955000D03*
X123932500Y-69305000D03*
X123932500Y-68655000D03*
X123932500Y-68005000D03*
X123932500Y-67355000D03*
X123932500Y-66705000D03*
X123932500Y-66055000D03*
X123932500Y-65405000D03*
X123932500Y-64755000D03*
%TD*%
D21*
%TO.C,C1*%
X137915000Y-62930000D03*
D31*
X139710000Y-62910000D03*
X141260000Y-62910000D03*
D21*
X142915000Y-62930000D03*
%TD*%
D10*
%TO.C,H4*%
X161830000Y-39980000D03*
%TD*%
D11*
%TO.C,R4*%
X137990000Y-54237500D03*
D33*
X137977500Y-51360000D03*
X137977500Y-49535000D03*
D11*
X137990000Y-46617500D03*
%TD*%
D21*
%TO.C,C6*%
X108000000Y-64892500D03*
D34*
X108020000Y-66687500D03*
X108020000Y-68237500D03*
D21*
X108000000Y-69892500D03*
%TD*%
D13*
%TO.C,J6*%
X93410000Y-73425000D03*
D14*
X95910000Y-73425000D03*
X98410000Y-73425000D03*
%TD*%
D35*
%TO.C,BUZZER1*%
X126830000Y-43389216D03*
D36*
X125600000Y-43399216D03*
D35*
X124600000Y-43399216D03*
D36*
X123490000Y-48369216D03*
D20*
X122490000Y-48369216D03*
X124600000Y-48399216D03*
%TD*%
D13*
%TO.C,J2*%
X88740000Y-54950000D03*
D14*
X91240000Y-54950000D03*
X93740000Y-54950000D03*
X96240000Y-54950000D03*
X98740000Y-54950000D03*
X101240000Y-54950000D03*
%TD*%
D11*
%TO.C,R3*%
X108050000Y-79990000D03*
D33*
X108037500Y-77112500D03*
X108037500Y-75287500D03*
D11*
X108050000Y-72370000D03*
%TD*%
%TO.C,R7*%
X145430000Y-81100000D03*
D12*
X142552500Y-81112500D03*
X140727500Y-81112500D03*
D11*
X137810000Y-81100000D03*
%TD*%
%TO.C,R5*%
X137180000Y-70800000D03*
D37*
X140057500Y-70787500D03*
X141882500Y-70787500D03*
D11*
X144800000Y-70800000D03*
%TD*%
D21*
%TO.C,C2*%
X137915000Y-59750000D03*
D31*
X139710000Y-59730000D03*
X141260000Y-59730000D03*
D21*
X142915000Y-59750000D03*
%TD*%
D11*
%TO.C,R2*%
X144830000Y-68260000D03*
D12*
X141952500Y-68272500D03*
X140127500Y-68272500D03*
D11*
X137210000Y-68260000D03*
%TD*%
D38*
%TO.C,D1*%
X133400000Y-39230000D03*
D39*
X143560000Y-39230000D03*
%TD*%
D18*
%TO.C,J10*%
X111557000Y-54410000D03*
D19*
X111557000Y-56950000D03*
X111557000Y-59490000D03*
X111557000Y-62030000D03*
X111557000Y-64570000D03*
X111557000Y-67110000D03*
X111557000Y-69650000D03*
X111557000Y-72190000D03*
X111557000Y-74730000D03*
X111557000Y-77270000D03*
X111557000Y-79810000D03*
X111557000Y-82350000D03*
%TD*%
D21*
%TO.C,C5*%
X108020000Y-62247500D03*
D40*
X108000000Y-60452500D03*
X108000000Y-58902500D03*
D21*
X108020000Y-57247500D03*
%TD*%
%TO.C,C8*%
X100550000Y-79580000D03*
D22*
X98755000Y-79600000D03*
X97205000Y-79600000D03*
D21*
X95550000Y-79580000D03*
%TD*%
D13*
%TO.C,J4*%
X71860000Y-64030000D03*
D14*
X74360000Y-64030000D03*
X76860000Y-64030000D03*
X79360000Y-64030000D03*
%TD*%
D41*
%TO.C,J8*%
X155102500Y-47160000D03*
D42*
X155102500Y-49660000D03*
X155102500Y-52160000D03*
X155102500Y-54660000D03*
X155102500Y-57160000D03*
%TD*%
M02*
