%TF.GenerationSoftware,KiCad,Pcbnew,9.0.7*%
%TF.CreationDate,2026-04-09T10:52:10-05:00*%
%TF.ProjectId,SimInvent FFB Yoke COMBINED v4,53696d49-6e76-4656-9e74-204646422059,rev?*%
%TF.SameCoordinates,Original*%
%TF.FileFunction,Paste,Top*%
%TF.FilePolarity,Positive*%
%FSLAX46Y46*%
G04 Gerber Fmt 4.6, Leading zero omitted, Abs format (unit mm)*
G04 Created by KiCad (PCBNEW 9.0.7) date 2026-04-09 10:52:10*
%MOMM*%
%LPD*%
G01*
G04 APERTURE LIST*
G04 Aperture macros list*
%AMRoundRect*
0 Rectangle with rounded corners*
0 $1 Rounding radius*
0 $2 $3 $4 $5 $6 $7 $8 $9 X,Y pos of 4 corners*
0 Add a 4 corners polygon primitive as box body*
4,1,4,$2,$3,$4,$5,$6,$7,$8,$9,$2,$3,0*
0 Add four circle primitives for the rounded corners*
1,1,$1+$1,$2,$3*
1,1,$1+$1,$4,$5*
1,1,$1+$1,$6,$7*
1,1,$1+$1,$8,$9*
0 Add four rect primitives between the rounded corners*
20,1,$1+$1,$2,$3,$4,$5,0*
20,1,$1+$1,$4,$5,$6,$7,0*
20,1,$1+$1,$6,$7,$8,$9,0*
20,1,$1+$1,$8,$9,$2,$3,0*%
G04 Aperture macros list end*
%ADD10C,0.000000*%
%ADD11RoundRect,0.090000X0.090000X-0.139000X0.090000X0.139000X-0.090000X0.139000X-0.090000X-0.139000X0*%
%ADD12RoundRect,0.237500X0.237500X-0.250000X0.237500X0.250000X-0.237500X0.250000X-0.237500X-0.250000X0*%
%ADD13RoundRect,0.225000X-0.225000X-0.250000X0.225000X-0.250000X0.225000X0.250000X-0.225000X0.250000X0*%
%ADD14RoundRect,0.237500X-0.250000X-0.237500X0.250000X-0.237500X0.250000X0.237500X-0.250000X0.237500X0*%
%ADD15RoundRect,0.225000X0.225000X0.250000X-0.225000X0.250000X-0.225000X-0.250000X0.225000X-0.250000X0*%
%ADD16RoundRect,0.225000X0.250000X-0.225000X0.250000X0.225000X-0.250000X0.225000X-0.250000X-0.225000X0*%
%ADD17RoundRect,0.225000X-0.250000X0.225000X-0.250000X-0.225000X0.250000X-0.225000X0.250000X0.225000X0*%
%ADD18R,0.800000X1.000000*%
%ADD19RoundRect,0.090000X0.139000X0.090000X-0.139000X0.090000X-0.139000X-0.090000X0.139000X-0.090000X0*%
%ADD20RoundRect,0.237500X0.250000X0.237500X-0.250000X0.237500X-0.250000X-0.237500X0.250000X-0.237500X0*%
%ADD21RoundRect,0.250000X-1.000000X-0.650000X1.000000X-0.650000X1.000000X0.650000X-1.000000X0.650000X0*%
%ADD22RoundRect,0.100000X-0.637500X-0.100000X0.637500X-0.100000X0.637500X0.100000X-0.637500X0.100000X0*%
%ADD23RoundRect,0.150000X-0.587500X-0.150000X0.587500X-0.150000X0.587500X0.150000X-0.587500X0.150000X0*%
%ADD24R,1.000000X0.200000*%
%ADD25R,1.500000X1.500000*%
%ADD26R,0.864000X0.806500*%
%ADD27O,0.602000X1.971000*%
G04 APERTURE END LIST*
D10*
%TO.C,R16*%
G36*
X108692000Y-108003000D02*
G01*
X108692000Y-108803000D01*
X108642000Y-108853000D01*
X108400000Y-108853000D01*
X108400000Y-108483000D01*
X108070000Y-108483000D01*
X108070000Y-108853000D01*
X107842000Y-108853000D01*
X107792000Y-108803000D01*
X107792000Y-108003000D01*
X107842000Y-107953000D01*
X108642000Y-107953000D01*
X108692000Y-108003000D01*
G37*
G36*
X108070000Y-109933000D02*
G01*
X108400000Y-109933000D01*
X108400000Y-109553000D01*
X108642000Y-109553000D01*
X108692000Y-109603000D01*
X108692000Y-110393000D01*
X108642000Y-110443000D01*
X107842000Y-110443000D01*
X107792000Y-110393000D01*
X107792000Y-109603000D01*
X107842000Y-109553000D01*
X108070000Y-109553000D01*
X108070000Y-109933000D01*
G37*
%TO.C,R9*%
G36*
X108692000Y-95557000D02*
G01*
X108692000Y-96347000D01*
X108642000Y-96397000D01*
X108414000Y-96397000D01*
X108414000Y-96017000D01*
X108084000Y-96017000D01*
X108084000Y-96397000D01*
X107842000Y-96397000D01*
X107792000Y-96347000D01*
X107792000Y-95557000D01*
X107842000Y-95507000D01*
X108642000Y-95507000D01*
X108692000Y-95557000D01*
G37*
G36*
X108084000Y-97467000D02*
G01*
X108414000Y-97467000D01*
X108414000Y-97097000D01*
X108642000Y-97097000D01*
X108692000Y-97147000D01*
X108692000Y-97947000D01*
X108642000Y-97997000D01*
X107842000Y-97997000D01*
X107792000Y-97947000D01*
X107792000Y-97147000D01*
X107842000Y-97097000D01*
X108084000Y-97097000D01*
X108084000Y-97467000D01*
G37*
%TO.C,R5*%
G36*
X96500000Y-108003000D02*
G01*
X96500000Y-108803000D01*
X96450000Y-108853000D01*
X96208000Y-108853000D01*
X96208000Y-108483000D01*
X95878000Y-108483000D01*
X95878000Y-108853000D01*
X95650000Y-108853000D01*
X95600000Y-108803000D01*
X95600000Y-108003000D01*
X95650000Y-107953000D01*
X96450000Y-107953000D01*
X96500000Y-108003000D01*
G37*
G36*
X95878000Y-109933000D02*
G01*
X96208000Y-109933000D01*
X96208000Y-109553000D01*
X96450000Y-109553000D01*
X96500000Y-109603000D01*
X96500000Y-110393000D01*
X96450000Y-110443000D01*
X95650000Y-110443000D01*
X95600000Y-110393000D01*
X95600000Y-109603000D01*
X95650000Y-109553000D01*
X95878000Y-109553000D01*
X95878000Y-109933000D01*
G37*
%TO.C,R2*%
G36*
X99802000Y-95557000D02*
G01*
X99802000Y-96347000D01*
X99752000Y-96397000D01*
X99524000Y-96397000D01*
X99524000Y-96017000D01*
X99194000Y-96017000D01*
X99194000Y-96397000D01*
X98952000Y-96397000D01*
X98902000Y-96347000D01*
X98902000Y-95557000D01*
X98952000Y-95507000D01*
X99752000Y-95507000D01*
X99802000Y-95557000D01*
G37*
G36*
X99194000Y-97467000D02*
G01*
X99524000Y-97467000D01*
X99524000Y-97097000D01*
X99752000Y-97097000D01*
X99802000Y-97147000D01*
X99802000Y-97947000D01*
X99752000Y-97997000D01*
X98952000Y-97997000D01*
X98902000Y-97947000D01*
X98902000Y-97147000D01*
X98952000Y-97097000D01*
X99194000Y-97097000D01*
X99194000Y-97467000D01*
G37*
%TO.C,R14*%
G36*
X111994000Y-108003000D02*
G01*
X111994000Y-108803000D01*
X111944000Y-108853000D01*
X111702000Y-108853000D01*
X111702000Y-108483000D01*
X111372000Y-108483000D01*
X111372000Y-108853000D01*
X111144000Y-108853000D01*
X111094000Y-108803000D01*
X111094000Y-108003000D01*
X111144000Y-107953000D01*
X111944000Y-107953000D01*
X111994000Y-108003000D01*
G37*
G36*
X111372000Y-109933000D02*
G01*
X111702000Y-109933000D01*
X111702000Y-109553000D01*
X111944000Y-109553000D01*
X111994000Y-109603000D01*
X111994000Y-110393000D01*
X111944000Y-110443000D01*
X111144000Y-110443000D01*
X111094000Y-110393000D01*
X111094000Y-109603000D01*
X111144000Y-109553000D01*
X111372000Y-109553000D01*
X111372000Y-109933000D01*
G37*
%TO.C,R15*%
G36*
X110343000Y-108003000D02*
G01*
X110343000Y-108803000D01*
X110293000Y-108853000D01*
X110051000Y-108853000D01*
X110051000Y-108483000D01*
X109721000Y-108483000D01*
X109721000Y-108853000D01*
X109493000Y-108853000D01*
X109443000Y-108803000D01*
X109443000Y-108003000D01*
X109493000Y-107953000D01*
X110293000Y-107953000D01*
X110343000Y-108003000D01*
G37*
G36*
X109721000Y-109933000D02*
G01*
X110051000Y-109933000D01*
X110051000Y-109553000D01*
X110293000Y-109553000D01*
X110343000Y-109603000D01*
X110343000Y-110393000D01*
X110293000Y-110443000D01*
X109493000Y-110443000D01*
X109443000Y-110393000D01*
X109443000Y-109603000D01*
X109493000Y-109553000D01*
X109721000Y-109553000D01*
X109721000Y-109933000D01*
G37*
%TO.C,R10*%
G36*
X110343000Y-95557000D02*
G01*
X110343000Y-96347000D01*
X110293000Y-96397000D01*
X110065000Y-96397000D01*
X110065000Y-96017000D01*
X109735000Y-96017000D01*
X109735000Y-96397000D01*
X109493000Y-96397000D01*
X109443000Y-96347000D01*
X109443000Y-95557000D01*
X109493000Y-95507000D01*
X110293000Y-95507000D01*
X110343000Y-95557000D01*
G37*
G36*
X109735000Y-97467000D02*
G01*
X110065000Y-97467000D01*
X110065000Y-97097000D01*
X110293000Y-97097000D01*
X110343000Y-97147000D01*
X110343000Y-97947000D01*
X110293000Y-97997000D01*
X109493000Y-97997000D01*
X109443000Y-97947000D01*
X109443000Y-97147000D01*
X109493000Y-97097000D01*
X109735000Y-97097000D01*
X109735000Y-97467000D01*
G37*
%TO.C,R13*%
G36*
X113645000Y-108003000D02*
G01*
X113645000Y-108803000D01*
X113595000Y-108853000D01*
X113353000Y-108853000D01*
X113353000Y-108483000D01*
X113023000Y-108483000D01*
X113023000Y-108853000D01*
X112795000Y-108853000D01*
X112745000Y-108803000D01*
X112745000Y-108003000D01*
X112795000Y-107953000D01*
X113595000Y-107953000D01*
X113645000Y-108003000D01*
G37*
G36*
X113023000Y-109933000D02*
G01*
X113353000Y-109933000D01*
X113353000Y-109553000D01*
X113595000Y-109553000D01*
X113645000Y-109603000D01*
X113645000Y-110393000D01*
X113595000Y-110443000D01*
X112795000Y-110443000D01*
X112745000Y-110393000D01*
X112745000Y-109603000D01*
X112795000Y-109553000D01*
X113023000Y-109553000D01*
X113023000Y-109933000D01*
G37*
%TO.C,R12*%
G36*
X111994000Y-95557000D02*
G01*
X111994000Y-96357000D01*
X111944000Y-96407000D01*
X111702000Y-96407000D01*
X111702000Y-96037000D01*
X111372000Y-96037000D01*
X111372000Y-96407000D01*
X111144000Y-96407000D01*
X111094000Y-96357000D01*
X111094000Y-95557000D01*
X111144000Y-95507000D01*
X111944000Y-95507000D01*
X111994000Y-95557000D01*
G37*
G36*
X111372000Y-97487000D02*
G01*
X111702000Y-97487000D01*
X111702000Y-97107000D01*
X111944000Y-97107000D01*
X111994000Y-97157000D01*
X111994000Y-97947000D01*
X111944000Y-97997000D01*
X111144000Y-97997000D01*
X111094000Y-97947000D01*
X111094000Y-97157000D01*
X111144000Y-97107000D01*
X111372000Y-97107000D01*
X111372000Y-97487000D01*
G37*
%TO.C,R4*%
G36*
X96500000Y-95557000D02*
G01*
X96500000Y-96347000D01*
X96450000Y-96397000D01*
X96222000Y-96397000D01*
X96222000Y-96017000D01*
X95892000Y-96017000D01*
X95892000Y-96397000D01*
X95650000Y-96397000D01*
X95600000Y-96347000D01*
X95600000Y-95557000D01*
X95650000Y-95507000D01*
X96450000Y-95507000D01*
X96500000Y-95557000D01*
G37*
G36*
X95892000Y-97467000D02*
G01*
X96222000Y-97467000D01*
X96222000Y-97097000D01*
X96450000Y-97097000D01*
X96500000Y-97147000D01*
X96500000Y-97947000D01*
X96450000Y-97997000D01*
X95650000Y-97997000D01*
X95600000Y-97947000D01*
X95600000Y-97147000D01*
X95650000Y-97097000D01*
X95892000Y-97097000D01*
X95892000Y-97467000D01*
G37*
%TO.C,R8*%
G36*
X99802000Y-108003000D02*
G01*
X99802000Y-108803000D01*
X99752000Y-108853000D01*
X99510000Y-108853000D01*
X99510000Y-108483000D01*
X99180000Y-108483000D01*
X99180000Y-108853000D01*
X98952000Y-108853000D01*
X98902000Y-108803000D01*
X98902000Y-108003000D01*
X98952000Y-107953000D01*
X99752000Y-107953000D01*
X99802000Y-108003000D01*
G37*
G36*
X99180000Y-109933000D02*
G01*
X99510000Y-109933000D01*
X99510000Y-109553000D01*
X99752000Y-109553000D01*
X99802000Y-109603000D01*
X99802000Y-110393000D01*
X99752000Y-110443000D01*
X98952000Y-110443000D01*
X98902000Y-110393000D01*
X98902000Y-109603000D01*
X98952000Y-109553000D01*
X99180000Y-109553000D01*
X99180000Y-109933000D01*
G37*
%TO.C,R6*%
G36*
X98151000Y-108003000D02*
G01*
X98151000Y-108803000D01*
X98101000Y-108853000D01*
X97859000Y-108853000D01*
X97859000Y-108483000D01*
X97529000Y-108483000D01*
X97529000Y-108853000D01*
X97301000Y-108853000D01*
X97251000Y-108803000D01*
X97251000Y-108003000D01*
X97301000Y-107953000D01*
X98101000Y-107953000D01*
X98151000Y-108003000D01*
G37*
G36*
X97529000Y-109933000D02*
G01*
X97859000Y-109933000D01*
X97859000Y-109553000D01*
X98101000Y-109553000D01*
X98151000Y-109603000D01*
X98151000Y-110393000D01*
X98101000Y-110443000D01*
X97301000Y-110443000D01*
X97251000Y-110393000D01*
X97251000Y-109603000D01*
X97301000Y-109553000D01*
X97529000Y-109553000D01*
X97529000Y-109933000D01*
G37*
%TO.C,R7*%
G36*
X101453000Y-108003000D02*
G01*
X101453000Y-108793000D01*
X101403000Y-108843000D01*
X101175000Y-108843000D01*
X101175000Y-108463000D01*
X100845000Y-108463000D01*
X100845000Y-108843000D01*
X100603000Y-108843000D01*
X100553000Y-108793000D01*
X100553000Y-108003000D01*
X100603000Y-107953000D01*
X101403000Y-107953000D01*
X101453000Y-108003000D01*
G37*
G36*
X100845000Y-109913000D02*
G01*
X101175000Y-109913000D01*
X101175000Y-109543000D01*
X101403000Y-109543000D01*
X101453000Y-109593000D01*
X101453000Y-110393000D01*
X101403000Y-110443000D01*
X100603000Y-110443000D01*
X100553000Y-110393000D01*
X100553000Y-109593000D01*
X100603000Y-109543000D01*
X100845000Y-109543000D01*
X100845000Y-109913000D01*
G37*
%TO.C,R1*%
G36*
X101453000Y-95557000D02*
G01*
X101453000Y-96347000D01*
X101403000Y-96397000D01*
X101175000Y-96397000D01*
X101175000Y-96017000D01*
X100845000Y-96017000D01*
X100845000Y-96397000D01*
X100603000Y-96397000D01*
X100553000Y-96347000D01*
X100553000Y-95557000D01*
X100603000Y-95507000D01*
X101403000Y-95507000D01*
X101453000Y-95557000D01*
G37*
G36*
X100845000Y-97467000D02*
G01*
X101175000Y-97467000D01*
X101175000Y-97097000D01*
X101403000Y-97097000D01*
X101453000Y-97147000D01*
X101453000Y-97947000D01*
X101403000Y-97997000D01*
X100603000Y-97997000D01*
X100553000Y-97947000D01*
X100553000Y-97147000D01*
X100603000Y-97097000D01*
X100845000Y-97097000D01*
X100845000Y-97467000D01*
G37*
%TO.C,R11*%
G36*
X113645000Y-95557000D02*
G01*
X113645000Y-96347000D01*
X113595000Y-96397000D01*
X113367000Y-96397000D01*
X113367000Y-96017000D01*
X113037000Y-96017000D01*
X113037000Y-96397000D01*
X112795000Y-96397000D01*
X112745000Y-96347000D01*
X112745000Y-95557000D01*
X112795000Y-95507000D01*
X113595000Y-95507000D01*
X113645000Y-95557000D01*
G37*
G36*
X113037000Y-97467000D02*
G01*
X113367000Y-97467000D01*
X113367000Y-97097000D01*
X113595000Y-97097000D01*
X113645000Y-97147000D01*
X113645000Y-97947000D01*
X113595000Y-97997000D01*
X112795000Y-97997000D01*
X112745000Y-97947000D01*
X112745000Y-97147000D01*
X112795000Y-97097000D01*
X113037000Y-97097000D01*
X113037000Y-97467000D01*
G37*
%TO.C,R3*%
G36*
X98151000Y-95557000D02*
G01*
X98151000Y-96347000D01*
X98101000Y-96397000D01*
X97873000Y-96397000D01*
X97873000Y-96017000D01*
X97543000Y-96017000D01*
X97543000Y-96397000D01*
X97301000Y-96397000D01*
X97251000Y-96347000D01*
X97251000Y-95557000D01*
X97301000Y-95507000D01*
X98101000Y-95507000D01*
X98151000Y-95557000D01*
G37*
G36*
X97543000Y-97467000D02*
G01*
X97873000Y-97467000D01*
X97873000Y-97097000D01*
X98101000Y-97097000D01*
X98151000Y-97147000D01*
X98151000Y-97947000D01*
X98101000Y-97997000D01*
X97301000Y-97997000D01*
X97251000Y-97947000D01*
X97251000Y-97147000D01*
X97301000Y-97097000D01*
X97543000Y-97097000D01*
X97543000Y-97467000D01*
G37*
%TD*%
D11*
%TO.C,R4*%
X126250000Y-51120000D03*
D12*
X126237500Y-51530000D03*
X126237500Y-49705000D03*
%TD*%
D13*
%TO.C,C2*%
X127970000Y-59900000D03*
X129520000Y-59900000D03*
%TD*%
D14*
%TO.C,R5*%
X128317500Y-70957500D03*
X130142500Y-70957500D03*
%TD*%
D15*
%TO.C,C8*%
X87015000Y-79770000D03*
X85465000Y-79770000D03*
%TD*%
D16*
%TO.C,C5*%
X96260000Y-60622500D03*
X96260000Y-59072500D03*
%TD*%
D11*
%TO.C,R3*%
X96310000Y-76872500D03*
D12*
X96297500Y-77282500D03*
X96297500Y-75457500D03*
%TD*%
D17*
%TO.C,C6*%
X96280000Y-66857500D03*
X96280000Y-68407500D03*
%TD*%
D18*
%TO.C,BUZZER1*%
X113860000Y-43569216D03*
X111750000Y-48539216D03*
%TD*%
D19*
%TO.C,R2*%
X129802500Y-68430000D03*
D20*
X130212500Y-68442500D03*
X128387500Y-68442500D03*
%TD*%
D19*
%TO.C,R7*%
X130402500Y-81270000D03*
D20*
X130812500Y-81282500D03*
X128987500Y-81282500D03*
%TD*%
D15*
%TO.C,C7*%
X71255000Y-79770000D03*
X69705000Y-79770000D03*
%TD*%
%TO.C,C11*%
X84320000Y-38900000D03*
X82770000Y-38900000D03*
%TD*%
D21*
%TO.C,D2*%
X121855000Y-43800000D03*
X125855000Y-43800000D03*
%TD*%
D20*
%TO.C,R6*%
X145140000Y-61602500D03*
X143315000Y-61602500D03*
%TD*%
D19*
%TO.C,R1*%
X129802500Y-66020000D03*
D20*
X130212500Y-66032500D03*
X128387500Y-66032500D03*
%TD*%
D13*
%TO.C,C1*%
X127970000Y-63080000D03*
X129520000Y-63080000D03*
%TD*%
D22*
%TO.C,U1*%
X106467500Y-64925000D03*
X106467500Y-65575000D03*
X106467500Y-66225000D03*
X106467500Y-66875000D03*
X106467500Y-67525000D03*
X106467500Y-68175000D03*
X106467500Y-68825000D03*
X106467500Y-69475000D03*
X106467500Y-70125000D03*
X106467500Y-70775000D03*
X106467500Y-71425000D03*
X106467500Y-72075000D03*
X112192500Y-72075000D03*
X112192500Y-71425000D03*
X112192500Y-70775000D03*
X112192500Y-70125000D03*
X112192500Y-69475000D03*
X112192500Y-68825000D03*
X112192500Y-68175000D03*
X112192500Y-67525000D03*
X112192500Y-66875000D03*
X112192500Y-66225000D03*
X112192500Y-65575000D03*
X112192500Y-64925000D03*
%TD*%
D13*
%TO.C,C12*%
X90195000Y-38850000D03*
X91745000Y-38850000D03*
%TD*%
D23*
%TO.C,Q2*%
X95595000Y-41270000D03*
X95595000Y-43170000D03*
X97470000Y-42220000D03*
%TD*%
D24*
%TO.C,SW1*%
X140680000Y-84420000D03*
D25*
X139670000Y-84400000D03*
D24*
X140560000Y-76780000D03*
D25*
X139670000Y-76700000D03*
%TD*%
D26*
%TO.C,R16*%
X108242000Y-109951500D03*
X108242000Y-108444500D03*
%TD*%
%TO.C,R9*%
X108242000Y-95998500D03*
X108242000Y-97505500D03*
%TD*%
D16*
%TO.C,C1*%
X65760000Y-93510000D03*
X65760000Y-91960000D03*
%TD*%
%TO.C,C2*%
X69770000Y-93525000D03*
X69770000Y-91975000D03*
%TD*%
D26*
%TO.C,R5*%
X96050000Y-109951500D03*
X96050000Y-108444500D03*
%TD*%
%TO.C,R2*%
X99352000Y-95998500D03*
X99352000Y-97505500D03*
%TD*%
D27*
%TO.C,IC1*%
X94526000Y-105710500D03*
X95796000Y-105710500D03*
X97066000Y-105710500D03*
X98336000Y-105710500D03*
X99606000Y-105710500D03*
X100876000Y-105710500D03*
X102146000Y-105710500D03*
X103416000Y-105710500D03*
X103416000Y-100239500D03*
X102146000Y-100239500D03*
X100876000Y-100239500D03*
X99606000Y-100239500D03*
X98336000Y-100239500D03*
X97066000Y-100239500D03*
X95796000Y-100239500D03*
X94526000Y-100239500D03*
%TD*%
D26*
%TO.C,R14*%
X111544000Y-109951500D03*
X111544000Y-108444500D03*
%TD*%
%TO.C,R15*%
X109893000Y-109951500D03*
X109893000Y-108444500D03*
%TD*%
%TO.C,R10*%
X109893000Y-95998500D03*
X109893000Y-97505500D03*
%TD*%
%TO.C,R13*%
X113195000Y-109951500D03*
X113195000Y-108444500D03*
%TD*%
%TO.C,R12*%
X111544000Y-97505500D03*
X111544000Y-95998500D03*
%TD*%
%TO.C,R4*%
X96050000Y-95998500D03*
X96050000Y-97505500D03*
%TD*%
%TO.C,R8*%
X99352000Y-109951500D03*
X99352000Y-108444500D03*
%TD*%
%TO.C,R6*%
X97701000Y-109951500D03*
X97701000Y-108444500D03*
%TD*%
%TO.C,R7*%
X101003000Y-108444500D03*
X101003000Y-109951500D03*
%TD*%
%TO.C,R1*%
X101003000Y-95998500D03*
X101003000Y-97505500D03*
%TD*%
D27*
%TO.C,IC2*%
X114592000Y-100239500D03*
X113322000Y-100239500D03*
X112052000Y-100239500D03*
X110782000Y-100239500D03*
X109512000Y-100239500D03*
X108242000Y-100239500D03*
X106972000Y-100239500D03*
X105702000Y-100239500D03*
X105702000Y-105710500D03*
X106972000Y-105710500D03*
X108242000Y-105710500D03*
X109512000Y-105710500D03*
X110782000Y-105710500D03*
X112052000Y-105710500D03*
X113322000Y-105710500D03*
X114592000Y-105710500D03*
%TD*%
D26*
%TO.C,R11*%
X113195000Y-95998500D03*
X113195000Y-97505500D03*
%TD*%
%TO.C,R3*%
X97701000Y-95998500D03*
X97701000Y-97505500D03*
%TD*%
M02*
