%TF.GenerationSoftware,KiCad,Pcbnew,9.0.7*%
%TF.CreationDate,2026-04-09T10:09:23-05:00*%
%TF.ProjectId,SimInvent FFB Yoke Main Board V4,53696d49-6e76-4656-9e74-204646422059,rev?*%
%TF.SameCoordinates,Original*%
%TF.FileFunction,Soldermask,Bot*%
%TF.FilePolarity,Negative*%
%FSLAX46Y46*%
G04 Gerber Fmt 4.6, Leading zero omitted, Abs format (unit mm)*
G04 Created by KiCad (PCBNEW 9.0.7) date 2026-04-09 10:09:23*
%MOMM*%
%LPD*%
G01*
G04 APERTURE LIST*
G04 Aperture macros list*
%AMRoundRect*
0 Rectangle with rounded corners*
0 $1 Rounding radius*
0 $2 $3 $4 $5 $6 $7 $8 $9 X,Y pos of 4 corners*
0 Add a 4 corners polygon primitive as box body*
4,1,4,$2,$3,$4,$5,$6,$7,$8,$9,$2,$3,0*
0 Add four circle primitives for the rounded corners*
1,1,$1+$1,$2,$3*
1,1,$1+$1,$4,$5*
1,1,$1+$1,$6,$7*
1,1,$1+$1,$8,$9*
0 Add four rect primitives between the rounded corners*
20,1,$1+$1,$2,$3,$4,$5,0*
20,1,$1+$1,$4,$5,$6,$7,0*
20,1,$1+$1,$6,$7,$8,$9,0*
20,1,$1+$1,$8,$9,$2,$3,0*%
G04 Aperture macros list end*
%ADD10C,4.300000*%
%ADD11C,1.400000*%
%ADD12RoundRect,0.250000X-0.600000X-0.725000X0.600000X-0.725000X0.600000X0.725000X-0.600000X0.725000X0*%
%ADD13O,1.700000X1.950000*%
%ADD14R,1.500000X1.050000*%
%ADD15O,1.500000X1.050000*%
%ADD16R,1.700000X1.700000*%
%ADD17C,1.700000*%
%ADD18C,2.000000*%
%ADD19C,1.600000*%
%ADD20C,1.800000*%
%ADD21C,1.440000*%
%ADD22R,1.600000X1.600000*%
%ADD23O,1.600000X1.600000*%
%ADD24C,1.150000*%
%ADD25R,2.000000X2.000000*%
%ADD26RoundRect,0.249999X-0.850001X-0.850001X0.850001X-0.850001X0.850001X0.850001X-0.850001X0.850001X0*%
%ADD27C,2.200000*%
%ADD28RoundRect,0.250000X-0.725000X0.600000X-0.725000X-0.600000X0.725000X-0.600000X0.725000X0.600000X0*%
%ADD29O,1.950000X1.700000*%
G04 APERTURE END LIST*
D10*
%TO.C,H2*%
X69830000Y-81980000D03*
%TD*%
D11*
%TO.C,R1*%
X144830000Y-65850000D03*
X137210000Y-65850000D03*
%TD*%
D12*
%TO.C,J5*%
X78900000Y-73455000D03*
D13*
X81400000Y-73455000D03*
X83900000Y-73455000D03*
%TD*%
D11*
%TO.C,R6*%
X159757500Y-61420000D03*
X152137500Y-61420000D03*
%TD*%
D14*
%TO.C,Q1*%
X111370000Y-40830000D03*
D15*
X111370000Y-42100000D03*
X111370000Y-43370000D03*
%TD*%
D12*
%TO.C,J1*%
X88740000Y-43990000D03*
D13*
X91240000Y-43990000D03*
X93740000Y-43990000D03*
X96240000Y-43990000D03*
X98740000Y-43990000D03*
X101240000Y-43990000D03*
%TD*%
D16*
%TO.C,J9*%
X155307500Y-66110000D03*
D17*
X157847500Y-66110000D03*
X155307500Y-68650000D03*
X157847500Y-68650000D03*
X155307500Y-71190000D03*
X157847500Y-71190000D03*
X155307500Y-73730000D03*
X157847500Y-73730000D03*
%TD*%
D18*
%TO.C,U2*%
X121617024Y-55680000D03*
X121717024Y-81080000D03*
D19*
X114097024Y-54410000D03*
X114097024Y-56950000D03*
X114097024Y-59490000D03*
X114097024Y-62030000D03*
X114097024Y-64570000D03*
X114097024Y-67110000D03*
X114097024Y-69650000D03*
X114097024Y-72190000D03*
X114097024Y-74730000D03*
X114097024Y-77270000D03*
X114097024Y-79810000D03*
X114097024Y-82350000D03*
X129337024Y-82350000D03*
X129337024Y-79810000D03*
X129337024Y-77270000D03*
X129337024Y-74730000D03*
X129337024Y-72190000D03*
X129337024Y-69650000D03*
X129337024Y-67110000D03*
X129337024Y-64570000D03*
X129337024Y-62030000D03*
X129337024Y-59490000D03*
X129337024Y-56950000D03*
X129337024Y-54410000D03*
%TD*%
D12*
%TO.C,J3*%
X88740000Y-64030000D03*
D13*
X91240000Y-64030000D03*
X93740000Y-64030000D03*
X96240000Y-64030000D03*
X98740000Y-64030000D03*
X101240000Y-64030000D03*
%TD*%
D10*
%TO.C,H3*%
X161830000Y-81980000D03*
%TD*%
D19*
%TO.C,C11*%
X97855000Y-38710000D03*
X92855000Y-38710000D03*
%TD*%
%TO.C,C7*%
X84790000Y-79580000D03*
X79790000Y-79580000D03*
%TD*%
D20*
%TO.C,SW1*%
X153260000Y-83580000D03*
X153260000Y-77180000D03*
%TD*%
D21*
%TO.C,RV1*%
X115540000Y-48580000D03*
X113000000Y-46040000D03*
X110460000Y-48580000D03*
%TD*%
D22*
%TO.C,ARDUINO_PRO_MICRO1*%
X133120000Y-54430000D03*
D23*
X133120000Y-56970000D03*
X133120000Y-59510000D03*
X133120000Y-62050000D03*
X133120000Y-64590000D03*
X133120000Y-67130000D03*
X133120000Y-69670000D03*
X133120000Y-72210000D03*
X133120000Y-74750000D03*
X133120000Y-77290000D03*
X133120000Y-79830000D03*
X133120000Y-82370000D03*
X148360000Y-82370000D03*
X148360000Y-79830000D03*
X148360000Y-77290000D03*
X148360000Y-74750000D03*
X148360000Y-72210000D03*
X148360000Y-69670000D03*
X148360000Y-67130000D03*
X148360000Y-64590000D03*
X148360000Y-62050000D03*
X148360000Y-59510000D03*
X148360000Y-56970000D03*
X148360000Y-54430000D03*
%TD*%
D16*
%TO.C,J7*%
X116030000Y-39170000D03*
D17*
X118570000Y-39170000D03*
%TD*%
D10*
%TO.C,H1*%
X69830000Y-39980000D03*
%TD*%
D24*
%TO.C,RV2*%
X114720000Y-47460000D03*
X112180000Y-47460000D03*
X109640000Y-47460000D03*
%TD*%
D19*
%TO.C,C12*%
X100140000Y-38700000D03*
X105140000Y-38700000D03*
%TD*%
%TO.C,C1*%
X137915000Y-62930000D03*
X142915000Y-62930000D03*
%TD*%
D10*
%TO.C,H4*%
X161830000Y-39980000D03*
%TD*%
D11*
%TO.C,R4*%
X137990000Y-54237500D03*
X137990000Y-46617500D03*
%TD*%
D19*
%TO.C,C6*%
X108000000Y-64892500D03*
X108000000Y-69892500D03*
%TD*%
D12*
%TO.C,J6*%
X93410000Y-73425000D03*
D13*
X95910000Y-73425000D03*
X98410000Y-73425000D03*
%TD*%
D25*
%TO.C,BUZZER1*%
X126830000Y-43389216D03*
X124600000Y-43399216D03*
D18*
X122490000Y-48369216D03*
X124600000Y-48399216D03*
%TD*%
D12*
%TO.C,J2*%
X88740000Y-54950000D03*
D13*
X91240000Y-54950000D03*
X93740000Y-54950000D03*
X96240000Y-54950000D03*
X98740000Y-54950000D03*
X101240000Y-54950000D03*
%TD*%
D11*
%TO.C,R3*%
X108050000Y-79990000D03*
X108050000Y-72370000D03*
%TD*%
%TO.C,R7*%
X145430000Y-81100000D03*
X137810000Y-81100000D03*
%TD*%
%TO.C,R5*%
X137180000Y-70800000D03*
X144800000Y-70800000D03*
%TD*%
D19*
%TO.C,C2*%
X137915000Y-59750000D03*
X142915000Y-59750000D03*
%TD*%
D11*
%TO.C,R2*%
X144830000Y-68260000D03*
X137210000Y-68260000D03*
%TD*%
D26*
%TO.C,D1*%
X133400000Y-39230000D03*
D27*
X143560000Y-39230000D03*
%TD*%
D16*
%TO.C,J10*%
X111557000Y-54410000D03*
D17*
X111557000Y-56950000D03*
X111557000Y-59490000D03*
X111557000Y-62030000D03*
X111557000Y-64570000D03*
X111557000Y-67110000D03*
X111557000Y-69650000D03*
X111557000Y-72190000D03*
X111557000Y-74730000D03*
X111557000Y-77270000D03*
X111557000Y-79810000D03*
X111557000Y-82350000D03*
%TD*%
D19*
%TO.C,C5*%
X108020000Y-62247500D03*
X108020000Y-57247500D03*
%TD*%
%TO.C,C8*%
X100550000Y-79580000D03*
X95550000Y-79580000D03*
%TD*%
D12*
%TO.C,J4*%
X71860000Y-64030000D03*
D13*
X74360000Y-64030000D03*
X76860000Y-64030000D03*
X79360000Y-64030000D03*
%TD*%
D28*
%TO.C,J8*%
X155102500Y-47160000D03*
D29*
X155102500Y-49660000D03*
X155102500Y-52160000D03*
X155102500Y-54660000D03*
X155102500Y-57160000D03*
%TD*%
M02*
