%TF.GenerationSoftware,KiCad,Pcbnew,9.0.7*%
%TF.CreationDate,2026-04-09T10:52:10-05:00*%
%TF.ProjectId,SimInvent FFB Yoke COMBINED v4,53696d49-6e76-4656-9e74-204646422059,rev?*%
%TF.SameCoordinates,Original*%
%TF.FileFunction,Soldermask,Bot*%
%TF.FilePolarity,Negative*%
%FSLAX46Y46*%
G04 Gerber Fmt 4.6, Leading zero omitted, Abs format (unit mm)*
G04 Created by KiCad (PCBNEW 9.0.7) date 2026-04-09 10:52:10*
%MOMM*%
%LPD*%
G01*
G04 APERTURE LIST*
G04 Aperture macros list*
%AMRoundRect*
0 Rectangle with rounded corners*
0 $1 Rounding radius*
0 $2 $3 $4 $5 $6 $7 $8 $9 X,Y pos of 4 corners*
0 Add a 4 corners polygon primitive as box body*
4,1,4,$2,$3,$4,$5,$6,$7,$8,$9,$2,$3,0*
0 Add four circle primitives for the rounded corners*
1,1,$1+$1,$2,$3*
1,1,$1+$1,$4,$5*
1,1,$1+$1,$6,$7*
1,1,$1+$1,$8,$9*
0 Add four rect primitives between the rounded corners*
20,1,$1+$1,$2,$3,$4,$5,0*
20,1,$1+$1,$4,$5,$6,$7,0*
20,1,$1+$1,$6,$7,$8,$9,0*
20,1,$1+$1,$8,$9,$2,$3,0*%
G04 Aperture macros list end*
%ADD10RoundRect,0.250000X-0.725000X0.600000X-0.725000X-0.600000X0.725000X-0.600000X0.725000X0.600000X0*%
%ADD11O,1.950000X1.700000*%
%ADD12C,1.400000*%
%ADD13RoundRect,0.250000X-0.600000X-0.725000X0.600000X-0.725000X0.600000X0.725000X-0.600000X0.725000X0*%
%ADD14O,1.700000X1.950000*%
%ADD15C,1.600000*%
%ADD16R,1.700000X1.700000*%
%ADD17C,1.700000*%
%ADD18RoundRect,0.249999X-0.850001X-0.850001X0.850001X-0.850001X0.850001X0.850001X-0.850001X0.850001X0*%
%ADD19C,2.200000*%
%ADD20R,2.000000X2.000000*%
%ADD21C,2.000000*%
%ADD22C,4.300000*%
%ADD23R,1.500000X1.050000*%
%ADD24O,1.500000X1.050000*%
%ADD25R,1.600000X1.600000*%
%ADD26O,1.600000X1.600000*%
%ADD27C,1.150000*%
%ADD28C,1.440000*%
%ADD29C,1.800000*%
%ADD30C,1.900000*%
%ADD31O,4.000000X2.000000*%
%ADD32R,1.800000X1.800000*%
%ADD33RoundRect,0.250000X0.600000X0.725000X-0.600000X0.725000X-0.600000X-0.725000X0.600000X-0.725000X0*%
%ADD34C,3.200000*%
G04 APERTURE END LIST*
D10*
%TO.C,J8*%
X143362500Y-47330000D03*
D11*
X143362500Y-49830000D03*
X143362500Y-52330000D03*
X143362500Y-54830000D03*
X143362500Y-57330000D03*
%TD*%
D12*
%TO.C,R4*%
X126250000Y-54407500D03*
X126250000Y-46787500D03*
%TD*%
D13*
%TO.C,J6*%
X81670000Y-73595000D03*
D14*
X84170000Y-73595000D03*
X86670000Y-73595000D03*
%TD*%
D15*
%TO.C,C2*%
X126175000Y-59920000D03*
X131175000Y-59920000D03*
%TD*%
D13*
%TO.C,J4*%
X60120000Y-64200000D03*
D14*
X62620000Y-64200000D03*
X65120000Y-64200000D03*
X67620000Y-64200000D03*
%TD*%
D12*
%TO.C,R5*%
X125440000Y-70970000D03*
X133060000Y-70970000D03*
%TD*%
D15*
%TO.C,C8*%
X88810000Y-79750000D03*
X83810000Y-79750000D03*
%TD*%
%TO.C,C5*%
X96280000Y-62417500D03*
X96280000Y-57417500D03*
%TD*%
D16*
%TO.C,J10*%
X99817000Y-54580000D03*
D17*
X99817000Y-57120000D03*
X99817000Y-59660000D03*
X99817000Y-62200000D03*
X99817000Y-64740000D03*
X99817000Y-67280000D03*
X99817000Y-69820000D03*
X99817000Y-72360000D03*
X99817000Y-74900000D03*
X99817000Y-77440000D03*
X99817000Y-79980000D03*
X99817000Y-82520000D03*
%TD*%
D12*
%TO.C,R3*%
X96310000Y-80160000D03*
X96310000Y-72540000D03*
%TD*%
D18*
%TO.C,D1*%
X121660000Y-39400000D03*
D19*
X131820000Y-39400000D03*
%TD*%
D15*
%TO.C,C6*%
X96260000Y-65062500D03*
X96260000Y-70062500D03*
%TD*%
D13*
%TO.C,J2*%
X77000000Y-55120000D03*
D14*
X79500000Y-55120000D03*
X82000000Y-55120000D03*
X84500000Y-55120000D03*
X87000000Y-55120000D03*
X89500000Y-55120000D03*
%TD*%
D20*
%TO.C,BUZZER1*%
X115090000Y-43559216D03*
X112860000Y-43569216D03*
D21*
X110750000Y-48539216D03*
X112860000Y-48569216D03*
%TD*%
D12*
%TO.C,R2*%
X133090000Y-68430000D03*
X125470000Y-68430000D03*
%TD*%
%TO.C,R7*%
X133690000Y-81270000D03*
X126070000Y-81270000D03*
%TD*%
D15*
%TO.C,C7*%
X73050000Y-79750000D03*
X68050000Y-79750000D03*
%TD*%
%TO.C,C11*%
X86115000Y-38880000D03*
X81115000Y-38880000D03*
%TD*%
D22*
%TO.C,H3*%
X150090000Y-82150000D03*
%TD*%
D13*
%TO.C,J3*%
X77000000Y-64200000D03*
D14*
X79500000Y-64200000D03*
X82000000Y-64200000D03*
X84500000Y-64200000D03*
X87000000Y-64200000D03*
X89500000Y-64200000D03*
%TD*%
D21*
%TO.C,U2*%
X109877024Y-55850000D03*
X109977024Y-81250000D03*
D15*
X102357024Y-54580000D03*
X102357024Y-57120000D03*
X102357024Y-59660000D03*
X102357024Y-62200000D03*
X102357024Y-64740000D03*
X102357024Y-67280000D03*
X102357024Y-69820000D03*
X102357024Y-72360000D03*
X102357024Y-74900000D03*
X102357024Y-77440000D03*
X102357024Y-79980000D03*
X102357024Y-82520000D03*
X117597024Y-82520000D03*
X117597024Y-79980000D03*
X117597024Y-77440000D03*
X117597024Y-74900000D03*
X117597024Y-72360000D03*
X117597024Y-69820000D03*
X117597024Y-67280000D03*
X117597024Y-64740000D03*
X117597024Y-62200000D03*
X117597024Y-59660000D03*
X117597024Y-57120000D03*
X117597024Y-54580000D03*
%TD*%
D16*
%TO.C,J9*%
X143567500Y-66280000D03*
D17*
X146107500Y-66280000D03*
X143567500Y-68820000D03*
X146107500Y-68820000D03*
X143567500Y-71360000D03*
X146107500Y-71360000D03*
X143567500Y-73900000D03*
X146107500Y-73900000D03*
%TD*%
D13*
%TO.C,J5*%
X67160000Y-73625000D03*
D14*
X69660000Y-73625000D03*
X72160000Y-73625000D03*
%TD*%
D13*
%TO.C,J1*%
X77000000Y-44160000D03*
D14*
X79500000Y-44160000D03*
X82000000Y-44160000D03*
X84500000Y-44160000D03*
X87000000Y-44160000D03*
X89500000Y-44160000D03*
%TD*%
D23*
%TO.C,Q1*%
X99630000Y-41000000D03*
D24*
X99630000Y-42270000D03*
X99630000Y-43540000D03*
%TD*%
D12*
%TO.C,R6*%
X148017500Y-61590000D03*
X140397500Y-61590000D03*
%TD*%
%TO.C,R1*%
X133090000Y-66020000D03*
X125470000Y-66020000D03*
%TD*%
D22*
%TO.C,H2*%
X58090000Y-82150000D03*
%TD*%
D25*
%TO.C,ARDUINO_PRO_MICRO1*%
X121380000Y-54600000D03*
D26*
X121380000Y-57140000D03*
X121380000Y-59680000D03*
X121380000Y-62220000D03*
X121380000Y-64760000D03*
X121380000Y-67300000D03*
X121380000Y-69840000D03*
X121380000Y-72380000D03*
X121380000Y-74920000D03*
X121380000Y-77460000D03*
X121380000Y-80000000D03*
X121380000Y-82540000D03*
X136620000Y-82540000D03*
X136620000Y-80000000D03*
X136620000Y-77460000D03*
X136620000Y-74920000D03*
X136620000Y-72380000D03*
X136620000Y-69840000D03*
X136620000Y-67300000D03*
X136620000Y-64760000D03*
X136620000Y-62220000D03*
X136620000Y-59680000D03*
X136620000Y-57140000D03*
X136620000Y-54600000D03*
%TD*%
D15*
%TO.C,C1*%
X126175000Y-63100000D03*
X131175000Y-63100000D03*
%TD*%
%TO.C,C12*%
X88400000Y-38870000D03*
X93400000Y-38870000D03*
%TD*%
D27*
%TO.C,RV2*%
X102980000Y-47630000D03*
X100440000Y-47630000D03*
X97900000Y-47630000D03*
%TD*%
D28*
%TO.C,RV1*%
X103800000Y-48750000D03*
X101260000Y-46210000D03*
X98720000Y-48750000D03*
%TD*%
D22*
%TO.C,H1*%
X58090000Y-40150000D03*
%TD*%
D16*
%TO.C,J7*%
X104290000Y-39340000D03*
D17*
X106830000Y-39340000D03*
%TD*%
D29*
%TO.C,SW1*%
X141520000Y-83750000D03*
X141520000Y-77350000D03*
%TD*%
D22*
%TO.C,H4*%
X150090000Y-40150000D03*
%TD*%
D17*
%TO.C,H12*%
X135765250Y-104952000D03*
%TD*%
%TO.C,H11*%
X152781250Y-109670000D03*
%TD*%
D30*
%TO.C,U9*%
X114846000Y-91291000D03*
X112306000Y-91291000D03*
X109766000Y-91291000D03*
X107226000Y-91291000D03*
%TD*%
D17*
%TO.C,H14*%
X130685250Y-104984000D03*
%TD*%
D15*
%TO.C,C1*%
X65780000Y-95305000D03*
X65780000Y-90305000D03*
%TD*%
D17*
%TO.C,H6*%
X133217250Y-114750000D03*
%TD*%
D29*
%TO.C,SW1*%
X133357250Y-112410000D03*
X133357250Y-109910000D03*
X133357250Y-107410000D03*
X150357250Y-107410000D03*
X150357250Y-109910000D03*
X150357250Y-112410000D03*
X135857250Y-112410000D03*
X135857250Y-107410000D03*
D31*
X142857250Y-104410000D03*
X142857250Y-115410000D03*
%TD*%
D15*
%TO.C,C2*%
X69790000Y-95320000D03*
X69790000Y-90320000D03*
%TD*%
D17*
%TO.C,H13*%
X133225250Y-104968000D03*
%TD*%
D32*
%TO.C,U1*%
X87414000Y-98022000D03*
D29*
X87414000Y-100562000D03*
X87414000Y-103102000D03*
X87414000Y-105642000D03*
X87414000Y-108182000D03*
%TD*%
D30*
%TO.C,U2*%
X96304000Y-114405000D03*
X98844000Y-114405000D03*
X101384000Y-114405000D03*
X103924000Y-114405000D03*
%TD*%
D17*
%TO.C,H9*%
X152781250Y-114750000D03*
%TD*%
D30*
%TO.C,U5*%
X85382000Y-114405000D03*
X87922000Y-114405000D03*
X90462000Y-114405000D03*
X93002000Y-114405000D03*
%TD*%
%TO.C,U8*%
X119545000Y-101070000D03*
X119545000Y-98530000D03*
X119545000Y-95990000D03*
X119545000Y-93450000D03*
%TD*%
D17*
%TO.C,H8*%
X150241250Y-114750000D03*
%TD*%
%TO.C,H5*%
X130677250Y-114750000D03*
%TD*%
%TO.C,H4*%
X130677250Y-112210000D03*
%TD*%
D33*
%TO.C,J2*%
X70240000Y-115540000D03*
D14*
X67740000Y-115540000D03*
X65240000Y-115540000D03*
X62740000Y-115540000D03*
%TD*%
D33*
%TO.C,J4*%
X64230000Y-108470000D03*
D14*
X61730000Y-108470000D03*
X59230000Y-108470000D03*
%TD*%
D30*
%TO.C,U6*%
X119545000Y-111992000D03*
X119545000Y-109452000D03*
X119545000Y-106912000D03*
X119545000Y-104372000D03*
%TD*%
D33*
%TO.C,J1*%
X75480000Y-101120000D03*
D14*
X72980000Y-101120000D03*
X70480000Y-101120000D03*
X67980000Y-101120000D03*
X65480000Y-101120000D03*
X62980000Y-101120000D03*
%TD*%
D30*
%TO.C,U4*%
X103924000Y-91291000D03*
X101384000Y-91291000D03*
X98844000Y-91291000D03*
X96304000Y-91291000D03*
%TD*%
%TO.C,U3*%
X93002000Y-91291000D03*
X90462000Y-91291000D03*
X87922000Y-91291000D03*
X85382000Y-91291000D03*
%TD*%
D33*
%TO.C,J3*%
X75470000Y-108485000D03*
D14*
X72970000Y-108485000D03*
X70470000Y-108485000D03*
%TD*%
D17*
%TO.C,H10*%
X152781250Y-112210000D03*
%TD*%
%TO.C,H7*%
X135761250Y-114736000D03*
%TD*%
D34*
%TO.C,H2*%
X57330000Y-91890000D03*
%TD*%
D17*
%TO.C,H3*%
X130677250Y-109670000D03*
%TD*%
D34*
%TO.C,H1*%
X78330000Y-91890000D03*
%TD*%
D30*
%TO.C,U7*%
X107226000Y-114405000D03*
X109766000Y-114405000D03*
X112306000Y-114405000D03*
X114846000Y-114405000D03*
%TD*%
D16*
%TO.C,H2*%
X130681250Y-117530000D03*
D17*
X133221250Y-117530000D03*
X135761250Y-117530000D03*
X138301250Y-117530000D03*
X140841250Y-117530000D03*
X143381250Y-117530000D03*
X145921250Y-117530000D03*
X148461250Y-117530000D03*
X151001250Y-117530000D03*
%TD*%
D16*
%TO.C,H1*%
X130681250Y-102290000D03*
D17*
X133221250Y-102290000D03*
X135761250Y-102290000D03*
X138301250Y-102290000D03*
X140841250Y-102290000D03*
X143381250Y-102290000D03*
X145921250Y-102290000D03*
X148461250Y-102290000D03*
X151001250Y-102290000D03*
%TD*%
M02*
