M48
; DRILL file {KiCad 9.0.7} date 2026-04-09T10:52:08-0500
; FORMAT={-:-/ absolute / metric / decimal}
; #@! TF.CreationDate,2026-04-09T10:52:08-05:00
; #@! TF.GenerationSoftware,Kicad,Pcbnew,9.0.7
; #@! TF.FileFunction,Plated,1,2,PTH
FMAT,2
METRIC
; #@! TA.AperFunction,Plated,PTH,ViaDrill
T1C0.300
; #@! TA.AperFunction,Plated,PTH,ViaDrill
T2C0.305
; #@! TA.AperFunction,Plated,PTH,ComponentDrill
T3C0.700
; #@! TA.AperFunction,Plated,PTH,ComponentDrill
T4C0.710
; #@! TA.AperFunction,Plated,PTH,ComponentDrill
T5C0.750
; #@! TA.AperFunction,Plated,PTH,ComponentDrill
T6C0.800
; #@! TA.AperFunction,Plated,PTH,ComponentDrill
T7C0.950
; #@! TA.AperFunction,Plated,PTH,ComponentDrill
T8C1.000
; #@! TA.AperFunction,Plated,PTH,ComponentDrill
T9C1.100
; #@! TA.AperFunction,Plated,PTH,ComponentDrill
T10C1.200
; #@! TA.AperFunction,Plated,PTH,ComponentDrill
T11C1.300
%
G90
G05
T1
X58.07Y-69.93
X58.1Y-47.08
X61.34Y-56.92
X62.03Y-70.23
X65.25Y-42.46
X66.39Y-75.8
X67.09Y-56.92
X68.31Y-66.43
X72.36Y-75.81
X72.45Y-114.67
X73.29Y-104.36
X73.33Y-111.66
X81.33Y-69.38
X83.02Y-56.92
X83.09Y-66.46
X86.05Y-66.44
X86.88Y-69.93
X92.54Y-76.22
X92.55Y-69.32
X94.965Y-75.05
X97.715Y-55.75
X97.76Y-77.16
X103.96Y-69.58
X104.65Y-72.53
X104.8Y-66.08
X104.9Y-68.03
X104.954Y-66.946
X104.97Y-69.15
X105.38Y-63.53
X106.45Y-80.03
X108.31Y-66.875
X109.53Y-77.3
X110.305Y-74.835
X110.32Y-66.225
X111.002Y-65.548
X112.47Y-74.55
X112.48Y-81.98
X112.49Y-77.34
X114.15Y-63.47
X114.97Y-71.15
X123.43Y-77.66
X125.56Y-83.54
X125.84Y-41.64
X129.78Y-77.66
X133.99Y-77.67
X137.391Y-51.419
X141.9Y-58.67
X143.83Y-76.37
X149.4Y-67.01
X151.77Y-46.34
T2
X91.641Y-100.239
X97.64Y-104.513
X98.54Y-98.587
X100.22Y-98.753
X101.51Y-104.02
X101.898Y-97.403
X102.104Y-96.092
X102.68Y-98.73
X104.819Y-106.703
X104.908Y-105.864
X105.708Y-92.649
X106.74Y-102.14
X107.07Y-110.489
X107.951Y-94.041
X108.898Y-98.738
X111.15Y-107.27
X111.91Y-102.396
X113.782Y-107.142
X115.96Y-105.77
X132.612Y-116.108
X149.782Y-116.158
T3
X96.31Y-72.54
X96.31Y-80.16
X125.44Y-70.97
X125.47Y-66.02
X125.47Y-68.43
X126.07Y-81.27
X126.25Y-46.788
X126.25Y-54.407
X133.06Y-70.97
X133.09Y-66.02
X133.09Y-68.43
X133.69Y-81.27
X140.397Y-61.59
X148.017Y-61.59
T4
X97.9Y-47.63
X100.44Y-47.63
X102.98Y-47.63
T5
X99.63Y-41.0
X99.63Y-42.27
X99.63Y-43.54
T6
X65.78Y-90.305
X65.78Y-95.305
X68.05Y-79.75
X69.79Y-90.32
X69.79Y-95.32
X73.05Y-79.75
X81.115Y-38.88
X83.81Y-79.75
X86.115Y-38.88
X88.4Y-38.87
X88.81Y-79.75
X93.4Y-38.87
X96.26Y-65.062
X96.26Y-70.062
X96.28Y-57.417
X96.28Y-62.417
X98.72Y-48.75
X101.26Y-46.21
X103.8Y-48.75
X121.38Y-54.6
X121.38Y-57.14
X121.38Y-59.68
X121.38Y-62.22
X121.38Y-64.76
X121.38Y-67.3
X121.38Y-69.84
X121.38Y-72.38
X121.38Y-74.92
X121.38Y-77.46
X121.38Y-80.0
X121.38Y-82.54
X126.175Y-59.92
X126.175Y-63.1
X131.175Y-59.92
X131.175Y-63.1
X136.62Y-54.6
X136.62Y-57.14
X136.62Y-59.68
X136.62Y-62.22
X136.62Y-64.76
X136.62Y-67.3
X136.62Y-69.84
X136.62Y-72.38
X136.62Y-74.92
X136.62Y-77.46
X136.62Y-80.0
X136.62Y-82.54
T7
X59.23Y-108.47
X60.12Y-64.2
X61.73Y-108.47
X62.62Y-64.2
X62.74Y-115.54
X62.98Y-101.12
X64.23Y-108.47
X65.12Y-64.2
X65.24Y-115.54
X65.48Y-101.12
X67.16Y-73.625
X67.62Y-64.2
X67.74Y-115.54
X67.98Y-101.12
X69.66Y-73.625
X70.24Y-115.54
X70.47Y-108.485
X70.48Y-101.12
X72.16Y-73.625
X72.97Y-108.485
X72.98Y-101.12
X75.47Y-108.485
X75.48Y-101.12
X77.0Y-44.16
X77.0Y-55.12
X77.0Y-64.2
X79.5Y-44.16
X79.5Y-55.12
X79.5Y-64.2
X81.67Y-73.595
X82.0Y-44.16
X82.0Y-55.12
X82.0Y-64.2
X84.17Y-73.595
X84.5Y-44.16
X84.5Y-55.12
X84.5Y-64.2
X86.67Y-73.595
X87.0Y-44.16
X87.0Y-55.12
X87.0Y-64.2
X89.5Y-44.16
X89.5Y-55.12
X89.5Y-64.2
X143.362Y-47.33
X143.362Y-49.83
X143.362Y-52.33
X143.362Y-54.83
X143.362Y-57.33
T8
X99.817Y-54.58
X99.817Y-57.12
X99.817Y-59.66
X99.817Y-62.2
X99.817Y-64.74
X99.817Y-67.28
X99.817Y-69.82
X99.817Y-72.36
X99.817Y-74.9
X99.817Y-77.44
X99.817Y-79.98
X99.817Y-82.52
X102.357Y-54.58
X102.357Y-57.12
X102.357Y-59.66
X102.357Y-62.2
X102.357Y-64.74
X102.357Y-67.28
X102.357Y-69.82
X102.357Y-72.36
X102.357Y-74.9
X102.357Y-77.44
X102.357Y-79.98
X102.357Y-82.52
X104.29Y-39.34
X106.83Y-39.34
X110.75Y-48.539
X112.86Y-43.569
X112.86Y-48.569
X115.09Y-43.559
X117.597Y-54.58
X117.597Y-57.12
X117.597Y-59.66
X117.597Y-62.2
X117.597Y-64.74
X117.597Y-67.28
X117.597Y-69.82
X117.597Y-72.36
X117.597Y-74.9
X117.597Y-77.44
X117.597Y-79.98
X117.597Y-82.52
X143.567Y-66.28
X143.567Y-68.82
X143.567Y-71.36
X143.567Y-73.9
X146.107Y-66.28
X146.107Y-68.82
X146.107Y-71.36
X146.107Y-73.9
T9
X87.414Y-98.022
X87.414Y-100.562
X87.414Y-103.102
X87.414Y-105.642
X87.414Y-108.182
X121.66Y-39.4
X130.677Y-109.67
X130.677Y-112.21
X130.677Y-114.75
X130.681Y-102.29
X130.681Y-117.53
X130.685Y-104.984
X131.82Y-39.4
X133.217Y-114.75
X133.221Y-102.29
X133.221Y-117.53
X133.225Y-104.968
X135.761Y-102.29
X135.761Y-114.736
X135.761Y-117.53
X135.765Y-104.952
X138.301Y-102.29
X138.301Y-117.53
X140.841Y-102.29
X140.841Y-117.53
X143.381Y-102.29
X143.381Y-117.53
X145.921Y-102.29
X145.921Y-117.53
X148.461Y-102.29
X148.461Y-117.53
X150.241Y-114.75
X151.001Y-102.29
X151.001Y-117.53
X152.781Y-109.67
X152.781Y-112.21
X152.781Y-114.75
T10
X141.52Y-77.35
X141.52Y-83.75
T11
X85.382Y-91.291
X85.382Y-114.405
X87.922Y-91.291
X87.922Y-114.405
X90.462Y-91.291
X90.462Y-114.405
X93.002Y-91.291
X93.002Y-114.405
X96.304Y-91.291
X96.304Y-114.405
X98.844Y-91.291
X98.844Y-114.405
X101.384Y-91.291
X101.384Y-114.405
X103.924Y-91.291
X103.924Y-114.405
X107.226Y-91.291
X107.226Y-114.405
X109.766Y-91.291
X109.766Y-114.405
X112.306Y-91.291
X112.306Y-114.405
X114.846Y-91.291
X114.846Y-114.405
X119.545Y-93.45
X119.545Y-95.99
X119.545Y-98.53
X119.545Y-101.07
X119.545Y-104.372
X119.545Y-106.912
X119.545Y-109.452
X119.545Y-111.992
X133.357Y-107.41
X133.357Y-109.91
X133.357Y-112.41
X135.857Y-107.41
X135.857Y-112.41
X150.357Y-107.41
X150.357Y-109.91
X150.357Y-112.41
T8
G00X143.857Y-104.41
M15
G01X141.857Y-104.41
M16
G05
G00X143.857Y-115.41
M15
G01X141.857Y-115.41
M16
G05
M30
